<mxfile host="app.diagrams.net" modified="2022-09-17T19:38:06.605Z" agent="5.0 (Windows NT 10.0) AppleWebKit/537.36 (KHTML, like Gecko) Chrome/105.0.0.0 Safari/537.36 Edg/105.0.1343.42" etag="HbTOqy8i9MKauFZy6gm8" version="20.3.2" type="github">
  <diagram id="C5RBs43oDa-KdzZeNtuy" name="Page-1">
    <mxGraphModel dx="867" dy="489" grid="1" gridSize="10" guides="1" tooltips="1" connect="1" arrows="1" fold="1" page="1" pageScale="1" pageWidth="827" pageHeight="1169" background="#EEEEEE" math="0" shadow="0">
      <root>
        <mxCell id="WIyWlLk6GJQsqaUBKTNV-0" />
        <mxCell id="WIyWlLk6GJQsqaUBKTNV-1" parent="WIyWlLk6GJQsqaUBKTNV-0" />
        <mxCell id="BFJVVlNyfMd8_RevzyIu-11" value="&lt;div style=&quot;text-align: center; box-sizing: border-box; width: 100%; background: rgb(228, 228, 228); padding: 2px; font-size: 14px;&quot;&gt;Класс&lt;/div&gt;&lt;table style=&quot;width: 100%; font-size: 14px;&quot; cellpadding=&quot;2&quot; cellspacing=&quot;0&quot;&gt;&lt;tbody style=&quot;font-size: 14px;&quot;&gt;&lt;tr style=&quot;font-size: 14px;&quot;&gt;&lt;td style=&quot;font-size: 14px;&quot;&gt;PK&amp;nbsp;&lt;/td&gt;&lt;td style=&quot;font-size: 14px;&quot;&gt;&lt;u&gt;id класса&lt;/u&gt;&lt;/td&gt;&lt;/tr&gt;&lt;tr style=&quot;font-size: 14px;&quot;&gt;&lt;td style=&quot;font-size: 14px;&quot;&gt;&lt;br style=&quot;font-size: 14px;&quot;&gt;&lt;/td&gt;&lt;td style=&quot;font-size: 14px;&quot;&gt;Наименование&lt;/td&gt;&lt;/tr&gt;&lt;/tbody&gt;&lt;/table&gt;" style="verticalAlign=top;align=left;overflow=fill;html=1;fontStyle=1;fontSize=14;fillColor=#F5AB50;strokeColor=#909090;fontColor=#1A1A1A;" vertex="1" parent="WIyWlLk6GJQsqaUBKTNV-1">
          <mxGeometry x="40" y="120" width="180" height="90" as="geometry" />
        </mxCell>
        <mxCell id="BFJVVlNyfMd8_RevzyIu-14" style="edgeStyle=orthogonalEdgeStyle;rounded=0;orthogonalLoop=1;jettySize=auto;html=1;entryX=0.006;entryY=0.6;entryDx=0;entryDy=0;entryPerimeter=0;strokeColor=#182E3E;fontSize=13;fontColor=#1A1A1A;labelBackgroundColor=#EEEEEE;" edge="1" parent="WIyWlLk6GJQsqaUBKTNV-1" source="BFJVVlNyfMd8_RevzyIu-12" target="BFJVVlNyfMd8_RevzyIu-11">
          <mxGeometry relative="1" as="geometry">
            <Array as="points">
              <mxPoint x="20" y="405" />
              <mxPoint x="20" y="174" />
            </Array>
          </mxGeometry>
        </mxCell>
        <mxCell id="BFJVVlNyfMd8_RevzyIu-12" value="&lt;div style=&quot;text-align: center; box-sizing: border-box; width: 100%; background: rgb(228, 228, 228); padding: 2px; font-size: 13px;&quot;&gt;Ученик&lt;/div&gt;&lt;table style=&quot;width: 100%; font-size: 13px;&quot; cellpadding=&quot;2&quot; cellspacing=&quot;0&quot;&gt;&lt;tbody style=&quot;font-size: 13px;&quot;&gt;&lt;tr style=&quot;font-size: 13px;&quot;&gt;&lt;td style=&quot;font-size: 13px;&quot;&gt;PK&lt;/td&gt;&lt;td style=&quot;font-size: 13px;&quot;&gt;&lt;u&gt;id ученика&lt;/u&gt;&lt;br&gt;&lt;br&gt;&lt;/td&gt;&lt;/tr&gt;&lt;tr style=&quot;font-size: 13px;&quot;&gt;&lt;td style=&quot;font-size: 13px;&quot;&gt;&lt;br style=&quot;font-size: 13px;&quot;&gt;&lt;/td&gt;&lt;td style=&quot;font-size: 13px;&quot;&gt;ФИО&lt;br style=&quot;font-size: 13px;&quot;&gt;&lt;br style=&quot;font-size: 13px;&quot;&gt;Дата рождения&lt;br style=&quot;font-size: 13px;&quot;&gt;&lt;br style=&quot;font-size: 13px;&quot;&gt;Адрес&lt;br style=&quot;font-size: 13px;&quot;&gt;&lt;br style=&quot;font-size: 13px;&quot;&gt;Класс&lt;/td&gt;&lt;/tr&gt;&lt;tr style=&quot;font-size: 13px;&quot;&gt;&lt;td style=&quot;font-size: 13px;&quot;&gt;&lt;br style=&quot;font-size: 13px;&quot;&gt;&lt;/td&gt;&lt;td style=&quot;font-size: 13px;&quot;&gt;&lt;br style=&quot;font-size: 13px;&quot;&gt;&lt;/td&gt;&lt;/tr&gt;&lt;/tbody&gt;&lt;/table&gt;" style="verticalAlign=top;align=left;overflow=fill;html=1;strokeColor=#909090;fontColor=#1A1A1A;fillColor=#F5AB50;fontStyle=1;fontSize=13;" vertex="1" parent="WIyWlLk6GJQsqaUBKTNV-1">
          <mxGeometry x="40" y="320" width="180" height="170" as="geometry" />
        </mxCell>
        <mxCell id="BFJVVlNyfMd8_RevzyIu-15" value="&lt;div style=&quot;text-align: center; box-sizing: border-box; width: 100%; background: rgb(228, 228, 228); padding: 2px;&quot;&gt;&lt;b&gt;&lt;font style=&quot;font-size: 13px;&quot;&gt;Учитель&lt;/font&gt;&lt;/b&gt;&lt;/div&gt;&lt;table style=&quot;width:100%;font-size:1em;&quot; cellpadding=&quot;2&quot; cellspacing=&quot;0&quot;&gt;&lt;tbody&gt;&lt;tr&gt;&lt;td&gt;&lt;b&gt;PK&lt;/b&gt;&lt;u&gt;&lt;br&gt;&lt;/u&gt;&lt;/td&gt;&lt;td&gt;&lt;b&gt;&lt;font style=&quot;font-size: 13px;&quot;&gt;&lt;u&gt;id учителя&lt;/u&gt;&lt;br&gt;&lt;br&gt;ФИО&lt;br&gt;&lt;br&gt;Адрес&lt;br&gt;&lt;br&gt;телефон&lt;/font&gt;&lt;/b&gt;&lt;/td&gt;&lt;/tr&gt;&lt;tr&gt;&lt;td&gt;&lt;b&gt;&lt;font style=&quot;font-size: 13px;&quot;&gt;&lt;br&gt;&lt;/font&gt;&lt;/b&gt;&lt;/td&gt;&lt;td&gt;&lt;br&gt;&lt;/td&gt;&lt;/tr&gt;&lt;/tbody&gt;&lt;/table&gt;" style="verticalAlign=top;align=left;overflow=fill;html=1;strokeColor=#909090;fontSize=13;fontColor=#1A1A1A;fillColor=#F5AB50;" vertex="1" parent="WIyWlLk6GJQsqaUBKTNV-1">
          <mxGeometry x="290" y="120" width="180" height="130" as="geometry" />
        </mxCell>
        <mxCell id="BFJVVlNyfMd8_RevzyIu-23" style="edgeStyle=orthogonalEdgeStyle;rounded=0;orthogonalLoop=1;jettySize=auto;html=1;entryX=0.5;entryY=1;entryDx=0;entryDy=0;strokeColor=#182E3E;fontSize=13;fontColor=#1A1A1A;labelBackgroundColor=#EEEEEE;" edge="1" parent="WIyWlLk6GJQsqaUBKTNV-1" source="BFJVVlNyfMd8_RevzyIu-16" target="BFJVVlNyfMd8_RevzyIu-12">
          <mxGeometry relative="1" as="geometry" />
        </mxCell>
        <mxCell id="BFJVVlNyfMd8_RevzyIu-28" style="edgeStyle=orthogonalEdgeStyle;rounded=0;orthogonalLoop=1;jettySize=auto;html=1;entryX=1;entryY=0.75;entryDx=0;entryDy=0;strokeColor=#182E3E;fontSize=13;fontColor=#1A1A1A;labelBackgroundColor=#EEEEEE;" edge="1" parent="WIyWlLk6GJQsqaUBKTNV-1" source="BFJVVlNyfMd8_RevzyIu-16" target="BFJVVlNyfMd8_RevzyIu-18">
          <mxGeometry relative="1" as="geometry">
            <Array as="points">
              <mxPoint x="500" y="670" />
              <mxPoint x="500" y="423" />
            </Array>
          </mxGeometry>
        </mxCell>
        <mxCell id="BFJVVlNyfMd8_RevzyIu-30" style="edgeStyle=orthogonalEdgeStyle;rounded=0;orthogonalLoop=1;jettySize=auto;html=1;entryX=0.594;entryY=1.033;entryDx=0;entryDy=0;entryPerimeter=0;strokeColor=#182E3E;fontSize=13;fontColor=#1A1A1A;labelBackgroundColor=#EEEEEE;" edge="1" parent="WIyWlLk6GJQsqaUBKTNV-1" source="BFJVVlNyfMd8_RevzyIu-16" target="BFJVVlNyfMd8_RevzyIu-24">
          <mxGeometry relative="1" as="geometry" />
        </mxCell>
        <mxCell id="BFJVVlNyfMd8_RevzyIu-16" value="&lt;div style=&quot;text-align: center; box-sizing: border-box; width: 100%; background: rgb(228, 228, 228); padding: 2px;&quot;&gt;&lt;b&gt;Посещение&lt;/b&gt;&lt;/div&gt;&lt;table style=&quot;width: 100%; font-size: 1em;&quot; cellpadding=&quot;2&quot; cellspacing=&quot;0&quot;&gt;&lt;tbody&gt;&lt;tr&gt;&lt;td&gt;&lt;b&gt;PK&lt;/b&gt;&lt;/td&gt;&lt;td&gt;&lt;b&gt;&lt;u&gt;id посещения&lt;/u&gt;&lt;/b&gt;&lt;/td&gt;&lt;/tr&gt;&lt;tr&gt;&lt;td&gt;&lt;br&gt;&lt;/td&gt;&lt;td&gt;&lt;b&gt;ученик&lt;br&gt;&lt;/b&gt;&lt;/td&gt;&lt;/tr&gt;&lt;tr&gt;&lt;td&gt;&lt;/td&gt;&lt;td&gt;&lt;b&gt;урок&lt;br&gt;&lt;br&gt;место&lt;/b&gt;&lt;/td&gt;&lt;/tr&gt;&lt;/tbody&gt;&lt;/table&gt;" style="verticalAlign=top;align=left;overflow=fill;html=1;strokeColor=#909090;fontSize=13;fontColor=#1A1A1A;fillColor=#F5AB50;" vertex="1" parent="WIyWlLk6GJQsqaUBKTNV-1">
          <mxGeometry x="290" y="620" width="180" height="110" as="geometry" />
        </mxCell>
        <mxCell id="BFJVVlNyfMd8_RevzyIu-21" style="edgeStyle=orthogonalEdgeStyle;rounded=0;orthogonalLoop=1;jettySize=auto;html=1;entryX=0;entryY=0.5;entryDx=0;entryDy=0;strokeColor=#182E3E;fontSize=13;fontColor=#1A1A1A;labelBackgroundColor=#EEEEEE;" edge="1" parent="WIyWlLk6GJQsqaUBKTNV-1" source="BFJVVlNyfMd8_RevzyIu-18" target="BFJVVlNyfMd8_RevzyIu-15">
          <mxGeometry relative="1" as="geometry">
            <Array as="points">
              <mxPoint x="250" y="375" />
              <mxPoint x="250" y="185" />
            </Array>
          </mxGeometry>
        </mxCell>
        <mxCell id="BFJVVlNyfMd8_RevzyIu-27" style="edgeStyle=orthogonalEdgeStyle;rounded=0;orthogonalLoop=1;jettySize=auto;html=1;entryX=-0.017;entryY=0.614;entryDx=0;entryDy=0;entryPerimeter=0;strokeColor=#182E3E;fontSize=13;fontColor=#1A1A1A;labelBackgroundColor=#EEEEEE;" edge="1" parent="WIyWlLk6GJQsqaUBKTNV-1" source="BFJVVlNyfMd8_RevzyIu-18" target="BFJVVlNyfMd8_RevzyIu-20">
          <mxGeometry relative="1" as="geometry">
            <Array as="points">
              <mxPoint x="260" y="375" />
              <mxPoint x="260" y="543" />
            </Array>
          </mxGeometry>
        </mxCell>
        <mxCell id="BFJVVlNyfMd8_RevzyIu-29" style="edgeStyle=orthogonalEdgeStyle;rounded=0;orthogonalLoop=1;jettySize=auto;html=1;entryX=0;entryY=0.5;entryDx=0;entryDy=0;strokeColor=#182E3E;fontSize=13;fontColor=#1A1A1A;labelBackgroundColor=#EEEEEE;" edge="1" parent="WIyWlLk6GJQsqaUBKTNV-1" source="BFJVVlNyfMd8_RevzyIu-18" target="BFJVVlNyfMd8_RevzyIu-19">
          <mxGeometry relative="1" as="geometry" />
        </mxCell>
        <mxCell id="BFJVVlNyfMd8_RevzyIu-18" value="&lt;div style=&quot;box-sizing:border-box;width:100%;background:#e4e4e4;padding:2px;&quot;&gt;&lt;div style=&quot;text-align: center;&quot;&gt;Урок&lt;/div&gt;&lt;table style=&quot;background-color: initial; font-size: 1em; width: 100%;&quot; cellpadding=&quot;2&quot; cellspacing=&quot;0&quot;&gt;&lt;tbody&gt;&lt;tr&gt;&lt;td&gt;PK&lt;/td&gt;&lt;td&gt;i&lt;u&gt;d урока&lt;/u&gt;&lt;br&gt;&lt;/td&gt;&lt;/tr&gt;&lt;tr&gt;&lt;td&gt;&lt;br&gt;&lt;/td&gt;&lt;td&gt;начало (timestamp)&lt;br&gt;&lt;br&gt;Окончание (timestamp)&lt;br&gt;&lt;br&gt;провел&lt;br&gt;&lt;br&gt;предмет&lt;br&gt;&lt;br&gt;кабинет&lt;br&gt;&lt;br&gt;&lt;/td&gt;&lt;/tr&gt;&lt;tr&gt;&lt;td&gt;&lt;/td&gt;&lt;td&gt;&lt;br&gt;&lt;/td&gt;&lt;/tr&gt;&lt;/tbody&gt;&lt;/table&gt;&lt;/div&gt;" style="verticalAlign=top;align=left;overflow=fill;html=1;strokeColor=#909090;fontSize=13;fontColor=#1A1A1A;fillColor=#F5AB50;fontStyle=1" vertex="1" parent="WIyWlLk6GJQsqaUBKTNV-1">
          <mxGeometry x="290" y="280" width="180" height="190" as="geometry" />
        </mxCell>
        <mxCell id="BFJVVlNyfMd8_RevzyIu-19" value="&lt;div style=&quot;text-align: center; box-sizing: border-box; width: 100%; background: rgb(228, 228, 228); padding: 2px;&quot;&gt;&lt;b&gt;Кабинет&lt;/b&gt;&lt;/div&gt;&lt;table style=&quot;width:100%;font-size:1em;&quot; cellpadding=&quot;2&quot; cellspacing=&quot;0&quot;&gt;&lt;tbody&gt;&lt;tr&gt;&lt;td&gt;&lt;b&gt;PK&lt;/b&gt;&lt;/td&gt;&lt;td&gt;&lt;u&gt;&lt;b&gt;id кабинета&lt;/b&gt;&lt;/u&gt;&lt;/td&gt;&lt;/tr&gt;&lt;tr&gt;&lt;td&gt;&lt;b&gt;&lt;br&gt;&lt;/b&gt;&lt;/td&gt;&lt;td&gt;&lt;b&gt;номер кабинета&lt;/b&gt;&lt;/td&gt;&lt;/tr&gt;&lt;tr&gt;&lt;td&gt;&lt;/td&gt;&lt;td&gt;&lt;b&gt;этаж&lt;/b&gt;&lt;/td&gt;&lt;/tr&gt;&lt;/tbody&gt;&lt;/table&gt;" style="verticalAlign=top;align=left;overflow=fill;html=1;strokeColor=#909090;fontSize=13;fontColor=#1A1A1A;fillColor=#F5AB50;" vertex="1" parent="WIyWlLk6GJQsqaUBKTNV-1">
          <mxGeometry x="560" y="190" width="180" height="90" as="geometry" />
        </mxCell>
        <mxCell id="BFJVVlNyfMd8_RevzyIu-20" value="&lt;div style=&quot;text-align: center; box-sizing: border-box; width: 100%; background: rgb(228, 228, 228); padding: 2px;&quot;&gt;Предмет&lt;/div&gt;&lt;table style=&quot;width: 100%; font-size: 1em;&quot; cellpadding=&quot;2&quot; cellspacing=&quot;0&quot;&gt;&lt;tbody&gt;&lt;tr&gt;&lt;td&gt;PK&lt;/td&gt;&lt;td&gt;&lt;u&gt;id предмета&lt;/u&gt;&lt;/td&gt;&lt;/tr&gt;&lt;tr&gt;&lt;td&gt;&lt;br&gt;&lt;/td&gt;&lt;td&gt;Название&lt;/td&gt;&lt;/tr&gt;&lt;/tbody&gt;&lt;/table&gt;" style="verticalAlign=top;align=left;overflow=fill;html=1;strokeColor=#909090;fontSize=13;fontColor=#1A1A1A;fillColor=#F5AB50;fontStyle=1" vertex="1" parent="WIyWlLk6GJQsqaUBKTNV-1">
          <mxGeometry x="300" y="500" width="180" height="70" as="geometry" />
        </mxCell>
        <mxCell id="BFJVVlNyfMd8_RevzyIu-24" value="&lt;div style=&quot;text-align: center; box-sizing: border-box; width: 100%; background: rgb(228, 228, 228); padding: 2px;&quot;&gt;&lt;b&gt;Места в кабинете&lt;/b&gt;&lt;/div&gt;&lt;table style=&quot;width:100%;font-size:1em;&quot; cellpadding=&quot;2&quot; cellspacing=&quot;0&quot;&gt;&lt;tbody&gt;&lt;tr&gt;&lt;td&gt;&lt;b&gt;PK&lt;/b&gt;&lt;/td&gt;&lt;td&gt;&lt;u&gt;&lt;b&gt;id места&lt;/b&gt;&lt;/u&gt;&lt;/td&gt;&lt;/tr&gt;&lt;tr&gt;&lt;td&gt;&lt;b&gt;&lt;br&gt;&lt;/b&gt;&lt;/td&gt;&lt;td&gt;&lt;b&gt;ряд&lt;br&gt;парта&lt;br&gt;вариант&lt;/b&gt;&lt;/td&gt;&lt;/tr&gt;&lt;/tbody&gt;&lt;/table&gt;" style="verticalAlign=top;align=left;overflow=fill;html=1;strokeColor=#909090;fontSize=13;fontColor=#1A1A1A;fillColor=#F5AB50;" vertex="1" parent="WIyWlLk6GJQsqaUBKTNV-1">
          <mxGeometry x="550" y="390" width="180" height="90" as="geometry" />
        </mxCell>
      </root>
    </mxGraphModel>
  </diagram>
</mxfile>
